<?xml version="1.0" encoding="utf-8"?>
<svg version="1.1" xmlns:xlink="http://www.w3.org/1999/xlink" width="24px" height="26px" xmlns="http://www.w3.org/2000/svg">
  <g transform="matrix(1 0 0 1 -789 -202 )">
    <path d="M 8.57386363636363 21.5143229166667  C 8.67613636363637 21.4127604166667  8.72727272727273 21.2829861111111  9 21.125  L 9 9.20833333333331  C 8.72727272727273 9.05034722222223  8.67613636363637 8.92057291666669  8.57386363636363 8.81901041666669  C 8.47159090909091 8.71744791666669  8.34090909090909 8.66666666666669  8.18181818181818 8.66666666666669  L 7.09090909090909 8.66666666666669  C 6.93181818181818 8.66666666666669  6.80113636363637 8.71744791666669  6.69886363636363 8.81901041666669  C 6.59659090909091 8.92057291666669  6.54545454545455 9.05034722222223  7 9.20833333333331  L 7 21.125  C 6.54545454545455 21.2829861111111  6.59659090909091 21.4127604166667  6.69886363636363 21.5143229166667  C 6.80113636363637 21.6158854166667  6.93181818181818 21.6666666666667  7.09090909090909 21.6666666666667  L 8.18181818181818 21.6666666666667  C 8.34090909090909 21.6666666666667  8.47159090909091 21.6158854166667  8.57386363636363 21.5143229166667  Z M 12.9375 21.5143229166667  C 13.0397727272727 21.4127604166667  13.0909090909091 21.2829861111111  13 21.125  L 13 9.20833333333331  C 13.0909090909091 9.05034722222223  13.0397727272727 8.92057291666669  12.9375 8.81901041666669  C 12.8352272727273 8.71744791666669  12.7045454545455 8.66666666666669  12.5454545454545 8.66666666666669  L 11.4545454545455 8.66666666666669  C 11.2954545454545 8.66666666666669  11.1647727272727 8.71744791666669  11.0625 8.81901041666669  C 10.9602272727273 8.92057291666669  10.9090909090909 9.05034722222223  11 9.20833333333331  L 11 21.125  C 10.9090909090909 21.2829861111111  10.9602272727273 21.4127604166667  11.0625 21.5143229166667  C 11.1647727272727 21.6158854166667  11.2954545454545 21.6666666666667  11.4545454545455 21.6666666666667  L 12.5454545454545 21.6666666666667  C 12.7045454545455 21.6666666666667  12.8352272727273 21.6158854166667  12.9375 21.5143229166667  Z M 17.3011363636364 21.5143229166667  C 17.4034090909091 21.4127604166667  17.4545454545455 21.2829861111111  17 21.125  L 17 9.20833333333331  C 17.4545454545455 9.05034722222223  17.4034090909091 8.92057291666669  17.3011363636364 8.81901041666669  C 17.1988636363636 8.71744791666669  17.0681818181818 8.66666666666669  16.9090909090909 8.66666666666669  L 15.8181818181818 8.66666666666669  C 15.6590909090909 8.66666666666669  15.5284090909091 8.71744791666669  15.4261363636364 8.81901041666669  C 15.3238636363636 8.92057291666669  15.2727272727273 9.05034722222223  15 9.20833333333331  L 15 21.125  C 15.2727272727273 21.2829861111111  15.3238636363636 21.4127604166667  15.4261363636364 21.5143229166667  C 15.5284090909091 21.6158854166667  15.6590909090909 21.6666666666667  15.8181818181818 21.6666666666667  L 16.9090909090909 21.6666666666667  C 17.0681818181818 21.6666666666667  17.1988636363636 21.6158854166667  17.3011363636364 21.5143229166667  Z M 9.01704545454545 2.35286458333331  L 8.18181818181818 4.33333333333331  L 15.8181818181818 4.33333333333331  L 15 2.35286458333331  C 14.9204545454546 2.25130208333331  14.8238636363636 2.18923611111111  14.7102272727273 2.16666666666669  L 9.30681818181818 2.16666666666669  C 9.19318181818182 2.18923611111111  9.09659090909091 2.25130208333331  9.01704545454545 2.35286458333331  Z M 23.8465909090909 4.48567708333331  C 23.9488636363636 4.58723958333331  24 4.71701388888889  24 4.875  L 24 5.95833333333331  C 24 6.11631944444443  23.9488636363636 6.24609375  23.8465909090909 6.34765625  C 23.7443181818182 6.44921875  23.6136363636364 6.5  23.4545454545455 6.5  L 21.8181818181818 6.5  L 21.8181818181818 22.546875  C 21.8181818181818 23.4835069444445  21.5511363636364 24.2931857638889  21.0170454545455 24.9759114583333  C 20.4829545454545 25.6586371527778  19.8409090909091 26  19.0909090909091 26  L 4.90909090909091 26  C 4.15909090909091 26  3.51704545454545 25.669921875  2.98295454545455 25.009765625  C 2.44886363636364 24.349609375  2.18181818181818 23.5512152777778  2.18181818181818 22.6145833333333  L 2.18181818181818 6.5  L 0.545454545454547 6.5  C 0.38636363636364 6.5  0.25568181818182 6.44921875  0.153409090909093 6.34765625  C 0.0511363636363669 6.24609375  0 6.11631944444443  0 5.95833333333331  L 0 4.875  C 0 4.71701388888889  0.0511363636363669 4.58723958333331  0.153409090909093 4.48567708333331  C 0.25568181818182 4.38411458333331  0.38636363636364 4.33333333333331  0.545454545454547 4.33333333333331  L 5.8125 4.33333333333331  L 7.00568181818182 1.50651041666669  C 7.17613636363637 1.08897569444443  7.48295454545455 0.733506944444429  7.92613636363637 0.440104166666686  C 8.36931818181818 0.146701388888886  8.81818181818182 0  9.27272727272727 0  L 14.7272727272727 0  C 15.1818181818182 0  15.6306818181818 0.146701388888886  16.0738636363636 0.440104166666686  C 16.5170454545455 0.733506944444429  16.8238636363636 1.08897569444443  16.9943181818182 1.50651041666669  L 18.1875 4.33333333333331  L 23.4545454545455 4.33333333333331  C 23.6136363636364 4.33333333333331  23.7443181818182 4.38411458333331  23.8465909090909 4.48567708333331  Z " fill-rule="nonzero" fill="#999999" stroke="none" transform="matrix(1 0 0 1 789 202 )" />
  </g>
</svg>