<?xml version="1.0" encoding="utf-8"?>
<svg version="1.1" xmlns:xlink="http://www.w3.org/1999/xlink" width="10px" height="10px" xmlns="http://www.w3.org/2000/svg">
  <g transform="matrix(1 0 0 1 -1576 -526 )">
    <path d="M 1581 526  C 1583.8 526  1586 528.2  1586 531  C 1586 533.8  1583.8 536  1581 536  C 1578.2 536  1576 533.8  1576 531  C 1576 528.2  1578.2 526  1581 526  Z " fill-rule="nonzero" fill="#ffffff" stroke="none" />
    <path d="M 1581 526.5  C 1583.52 526.5  1585.5 528.48  1585.5 531  C 1585.5 533.52  1583.52 535.5  1581 535.5  C 1578.48 535.5  1576.5 533.52  1576.5 531  C 1576.5 528.48  1578.48 526.5  1581 526.5  Z " stroke-width="1" stroke="#797979" fill="none" />
  </g>
</svg>